<svg xmlns="http://www.w3.org/2000/svg" width="37.04" height="46.352" viewBox="0 0 37.04 46.352">
  <path id="bell" d="M35.646,33.088a17.577,17.577,0,0,1-8.14-10.6l-1.974-7.379A12.868,12.868,0,0,0,13.543,5.56L12.8,2.8A3.8,3.8,0,0,0,5.473,4.768L6.21,7.523A12.9,12.9,0,0,0,.6,21.789l1.974,7.379a17.465,17.465,0,0,1,.6,4.525,17.5,17.5,0,0,1-2.33,8.72,2.043,2.043,0,0,0,.146,2.3,2.069,2.069,0,0,0,2.187.746L14.089,42.54a5.307,5.307,0,0,0,10.149-2.717L35.152,36.9a2.073,2.073,0,0,0,1.535-2.022,2.05,2.05,0,0,0-1.041-1.789ZM7.166,2.647a2.28,2.28,0,0,1,4.175.549l.641,2.4c-.072.006-.143.02-.215.028q-.359.036-.712.092c-.125.02-.251.04-.375.064q-.394.076-.779.172c-.057.014-.115.023-.171.038s-.092.03-.138.043q-.435.12-.857.269c-.076.026-.147.054-.221.081q-.439.164-.865.358c-.022.01-.045.017-.067.028l-.64-2.391a2.256,2.256,0,0,1,.225-1.728ZM22.753,40.223a3.8,3.8,0,0,1-7.186,1.923Zm12-4.788L2.778,44a.547.547,0,0,1-.588-.2.542.542,0,0,1-.038-.622,19.016,19.016,0,0,0,2.538-9.481,18.915,18.915,0,0,0-.649-4.918L2.068,21.4A11.4,11.4,0,0,1,7.446,8.538l.013-.006a11.346,11.346,0,0,1,2-.859c.219-.072.43-.159.654-.217a11.563,11.563,0,0,1,2.345-.369c.168-.009.335-.019.5-.021h.117a11.371,11.371,0,0,1,10.984,8.441l1.974,7.38A19.107,19.107,0,0,0,34.888,34.4a.531.531,0,0,1,.281.474.557.557,0,0,1-.417.557Zm0,0" transform="translate(0.102 0.343)" fill="#fff" stroke="#fff" stroke-width="0.5"/>
</svg>
