<svg xmlns="http://www.w3.org/2000/svg" width="44" height="44.004" viewBox="0 0 44 44.004">
  <path id="home-run" d="M43.318,19.139l0,0L25.365,1.186a4.051,4.051,0,0,0-5.729,0L1.694,19.127l-.018.018a4.049,4.049,0,0,0,2.7,6.9c.042,0,.083.006.125.006h.715V39.263A4.747,4.747,0,0,0,9.954,44h7.023a1.289,1.289,0,0,0,1.289-1.289V32.358a2.166,2.166,0,0,1,2.163-2.163h4.142s2.163.97,2.163,2.163V42.715A1.289,1.289,0,0,0,28.023,44h7.023a4.747,4.747,0,0,0,4.741-4.741V26.053h.663a4.052,4.052,0,0,0,2.867-6.914Zm-1.826,3.9a1.464,1.464,0,0,1-1.041.432H38.5a1.289,1.289,0,0,0-1.289,1.289v14.5a2.165,2.165,0,0,1-2.163,2.163H29.313V32.358a4.747,4.747,0,0,0-4.741-4.741H20.429a4.747,4.747,0,0,0-4.742,4.741v9.067H9.954A2.166,2.166,0,0,1,7.79,39.263v-14.5A1.289,1.289,0,0,0,6.5,23.475H4.582l-.06,0A1.471,1.471,0,0,1,3.508,20.96h0L21.459,3.009a1.472,1.472,0,0,1,2.082,0L41.487,20.954l.008.008a1.476,1.476,0,0,1,0,2.08Zm0,0" transform="translate(-0.5 0.001)" fill="#e11e25"/>
</svg>
