<svg xmlns="http://www.w3.org/2000/svg" xmlns:xlink="http://www.w3.org/1999/xlink" width="44" height="44" viewBox="0 0 44 44">
  <defs>
    <clipPath id="clip-path">
      <rect id="Rectangle_4172" data-name="Rectangle 4172" width="44" height="44" transform="translate(6006 -6230)" fill="#fff"/>
    </clipPath>
  </defs>
  <g id="Mask_Group_29" data-name="Mask Group 29" transform="translate(-6006 6230)" clip-path="url(#clip-path)">
    <g id="headset" transform="translate(6006 -6230)">
      <path id="Path_4084" data-name="Path 4084" d="M41.852,24.063a8.178,8.178,0,0,0-6.187-7.922V13.7a13.686,13.686,0,1,0-27.371,0v2.446a8.164,8.164,0,0,0,2.02,16.075h2.75a1.289,1.289,0,0,0,1.289-1.289V17.188A1.289,1.289,0,0,0,13.063,15.9H10.871V13.705a11.107,11.107,0,1,1,22.215,0V15.9H30.938a1.289,1.289,0,0,0-1.289,1.289v13.75a1.289,1.289,0,0,0,1.289,1.289h2.148v1.95a4.371,4.371,0,0,1-4.366,4.366H27.187a4.045,4.045,0,0,0-3.812-2.707h-2.75a4.082,4.082,0,0,0,0,8.164h2.75a4,4,0,0,0,3.858-2.879H28.72a6.952,6.952,0,0,0,6.945-6.945V31.984a8.178,8.178,0,0,0,6.187-7.922ZM11.773,29.648H10.313a5.586,5.586,0,0,1,0-11.172h1.461Zm11.6,11.773h-2.75a1.5,1.5,0,0,1,0-3.008h2.75a1.5,1.5,0,0,1,0,3.008ZM33.688,29.648H32.227V18.477h1.461a5.586,5.586,0,0,1,0,11.172Z" fill="#fff"/>
    </g>
  </g>
</svg>
