<svg id="Promo_Promotions" data-name="Promo &amp; Promotions" xmlns="http://www.w3.org/2000/svg" width="16.942" height="19.281" viewBox="0 0 16.942 19.281">
  <path id="Path_613" data-name="Path 613" d="M143.532,275.065a1.071,1.071,0,0,0,1.5-.214l12.854-17.138a1.071,1.071,0,0,0-1.714-1.286l-12.854,17.138A1.071,1.071,0,0,0,143.532,275.065Zm0,0" transform="translate(-141.89 -255.999)" fill="#fff"/>
  <path id="Path_614" data-name="Path 614" d="M131.387,264.569a4.285,4.285,0,1,0-4.285-4.285A4.284,4.284,0,0,0,131.387,264.569Zm0-6.427a2.142,2.142,0,1,1-2.142,2.142A2.142,2.142,0,0,1,131.387,258.142Zm0,0" transform="translate(-127.102 -254.584)" fill="#fff"/>
  <path id="Path_615" data-name="Path 615" d="M207.1,340.285A4.285,4.285,0,1,0,211.387,336,4.285,4.285,0,0,0,207.1,340.285Zm6.427,0a2.142,2.142,0,1,1-2.142-2.142A2.142,2.142,0,0,1,213.529,340.285Zm0,0" transform="translate(-198.729 -326.137)" fill="#fff"/>
</svg>
